<svg id="Layer_1" data-name="Layer 1" xmlns="http://www.w3.org/2000/svg" viewBox="0 0 66 22.34"><defs><style>.cls-1{fill:#fff;}</style></defs><title>slider</title><path class="cls-1" d="M13.23.54H14.6v15H10.69V8.88L7.5,12.22H7.08L3.91,8.88v6.67H0V.54H1.41L7.27,7Zm-.47,13.53V4.16h-.3L7.27,9.63,2.14,4.16H1.86v9.92h.21V4.43L7.27,10l5.28-5.52v9.64Z" transform="translate(0 -0.33)"/><path class="cls-1" d="M17.49,8.09c0-10.35,15.35-10.35,15.35,0S17.49,18.46,17.49,8.09ZM31,8.09c0-8-11.61-8-11.61,0S31,16.13,31,8.09Zm-11.4,0c0,7.83,11.18,7.68,11.18,0S19.58.29,19.58,8.09Zm9.34,0a3.76,3.76,0,1,1-7.5,0A3.76,3.76,0,1,1,28.93,8.09Z" transform="translate(0 -0.33)"/><path class="cls-1" d="M34.81,8.09c0-10.35,15.35-10.35,15.35,0S34.81,18.46,34.81,8.09Zm13.49,0c0-8-11.61-8-11.61,0S48.3,16.13,48.3,8.09Zm-11.4,0c0,7.83,11.18,7.68,11.18,0S36.9.29,36.9,8.09Zm9.34,0a3.76,3.76,0,1,1-7.5,0A3.76,3.76,0,1,1,46.24,8.09Z" transform="translate(0 -0.33)"/><path class="cls-1" d="M58.69,15.55H53V.59h5.64C68.44.63,68.44,15.51,58.69,15.55Zm-3.78-1.6h3.74c7.44,0,7.44-11.76,0-11.76H54.9ZM58.65,2.4H55.1V13.71h3.55C65.83,13.69,65.83,2.45,58.65,2.4ZM56.87,4.07h1.82c4.77,0,4.77,8,0,8H56.87Z" transform="translate(0 -0.33)"/><path class="cls-1" d="M19.43,18.67a1.73,1.73,0,0,1,1.82,1.47h-1a.81.81,0,0,0-.85-.57,1,1,0,0,0-1,1.08,1,1,0,0,0,1,1.07.82.82,0,0,0,.86-.63h1a1.73,1.73,0,0,1-1.84,1.53,2,2,0,1,1,0-4Z" transform="translate(0 -0.33)"/><path class="cls-1" d="M25.29,22.45v.14H24.19l-.66-1.14H23v1.14H22V18.72h1.7a1.38,1.38,0,0,1,.82,2.5ZM23.72,19.6H23v1h.71C24.25,20.56,24.28,19.61,23.72,19.6Z" transform="translate(0 -0.33)"/><path class="cls-1" d="M28.31,19.6H26.88v.55h1.32V21H26.88v.68h1.48v.88H25.89V18.72h2.42Z" transform="translate(0 -0.33)"/><path class="cls-1" d="M31.45,22.1H29.92l-.23.49h-1v-.14l1.74-3.78h.43l1.75,3.78v.14h-1Zm-.77-1.87-.43,1h.87Z" transform="translate(0 -0.33)"/><path class="cls-1" d="M32.55,19.6v-.89h2.88v.89h-.95v3h-1v-3Z" transform="translate(0 -0.33)"/><path class="cls-1" d="M37.77,21.72v.87h-2v-.87h.49V19.58h-.45v-.86h1.89v.86h-.45v2.14Z" transform="translate(0 -0.33)"/><path class="cls-1" d="M38.18,20.66a2,2,0,1,1,4,0A2,2,0,1,1,38.18,20.66Zm3,0a1,1,0,1,0-1.94,0A1,1,0,1,0,41.14,20.66Z" transform="translate(0 -0.33)"/><path class="cls-1" d="M43.93,20.69v1.9h-1V18.7h.36l2,1.91v-1.9h1v3.88h-.35Z" transform="translate(0 -0.33)"/><path class="cls-1" d="M49.12,21.43c0-.27-.32-.32-.71-.34C47.57,21,47,20.75,47,19.91c0-1.67,3-1.67,3,0H49c0-.51-1-.47-1.07,0,0,.29.27.35.61.39.77.08,1.52.18,1.52,1.15,0,1.63-3.15,1.67-3.13,0h1C47.9,21.9,49.12,21.89,49.12,21.43Z" transform="translate(0 -0.33)"/></svg>